<?xml version="1.0" encoding="utf-8"?>
<svg fill="none" height="229" viewBox="0 0 242 229" width="242" xmlns="http://www.w3.org/2000/svg">
<path d="M117.226 226.681C117.318 227.977 118.482 228.932 119.767 228.746C172.195 221.142 212.469 176.013 212.469 121.477C212.469 81.1762 190.476 46.0121 157.837 27.3325C156.716 26.6913 155.295 27.1453 154.727 28.3044L124.157 90.6762C123.655 91.6995 123.995 92.9298 124.908 93.6129C133.38 99.9582 138.863 110.077 138.863 121.477C138.863 137.239 128.382 150.552 114.009 154.828C112.943 155.145 112.203 156.14 112.282 157.249L117.226 226.681Z" fill="#efb81c"/>
<path d="M198.541 47.1638C199.5 46.3942 199.674 44.9984 198.911 44.0332C177.715 17.2121 144.896 0 108.056 0C92.4646 0 77.5929 3.0832 64.0177 8.67318C62.8758 9.1434 62.3457 10.4531 62.8143 11.5957L86.6839 69.8008C87.1761 71.001 88.5707 71.5402 89.7711 71.0485C95.4108 68.7384 101.585 67.4648 108.057 67.4648C123.537 67.4648 137.316 74.7524 146.149 86.0842C146.955 87.1175 148.453 87.3348 149.475 86.515L198.541 47.1638Z" fill="#c99c17"/>
<g filter="url(#filter0_b_1422_8591)">
<path d="M134.607 153.516C133.716 152.635 132.285 152.647 131.354 153.485C124.334 159.806 115.043 163.652 104.854 163.652C82.9739 163.652 65.2366 145.915 65.2366 124.035C65.2366 103.415 80.9898 86.4747 101.118 84.5918C102.331 84.4782 103.297 83.4838 103.297 82.2646V31.3649C103.297 30.0973 102.252 29.0729 100.985 29.1237C50.3181 31.1533 9.86523 72.8702 9.86523 124.035C9.86523 176.496 52.3932 219.024 104.854 219.024C130.44 219.024 153.664 208.907 170.743 192.456C171.646 191.587 171.637 190.147 170.745 189.266L134.607 153.516Z" fill="#efb81c" fill-opacity="0.5"/>
<path d="M134.607 153.516C133.716 152.635 132.285 152.647 131.354 153.485C124.334 159.806 115.043 163.652 104.854 163.652C82.9739 163.652 65.2366 145.915 65.2366 124.035C65.2366 103.415 80.9898 86.4747 101.118 84.5918C102.331 84.4782 103.297 83.4838 103.297 82.2646V31.3649C103.297 30.0973 102.252 29.0729 100.985 29.1237C50.3181 31.1533 9.86523 72.8702 9.86523 124.035C9.86523 176.496 52.3932 219.024 104.854 219.024C130.44 219.024 153.664 208.907 170.743 192.456C171.646 191.587 171.637 190.147 170.745 189.266L134.607 153.516Z" stroke="#efb81c" stroke-width="0.5"/>
</g>
<g filter="url(#filter1_d_1422_8591)">
<path clip-rule="evenodd" d="M227.49 53.6639C228.282 54.4684 228.642 55.6032 228.457 56.717L220.977 73.6398L215.977 68.1398L126.459 139.743C125.236 140.725 123.511 140.782 122.226 139.882L99.3059 123.838L4.59615 205.116L0 199.76L96.788 116.699C98.0109 115.65 99.7895 115.562 101.11 116.486L124.105 132.583L210.977 63.1398L206.477 57.1398L224.453 52.65C225.569 52.4826 226.698 52.8595 227.49 53.6639Z" fill="#efb81c" fill-rule="evenodd"/>
</g>
<defs>
<filter color-interpolation-filters="sRGB" filterUnits="userSpaceOnUse" height="199.479" id="filter0_b_1422_8591" width="171.129" x="5.0766" y="24.3332">
<feFlood flood-opacity="0" result="BackgroundImageFix"/>
<feGaussianBlur in="BackgroundImageFix" stdDeviation="2.26932"/>
<feComposite in2="SourceAlpha" operator="in" result="effect1_backgroundBlur_1422_8591"/>
<feBlend in="SourceGraphic" in2="effect1_backgroundBlur_1422_8591" mode="normal" result="shape"/>
</filter>
<filter color-interpolation-filters="sRGB" filterUnits="userSpaceOnUse" height="156.505" id="filter1_d_1422_8591" width="241.851" x="0" y="51.5187">
<feFlood flood-opacity="0" result="BackgroundImageFix"/>
<feColorMatrix in="SourceAlpha" result="hardAlpha" type="matrix" values="0 0 0 0 0 0 0 0 0 0 0 0 0 0 0 0 0 0 127 0"/>
<feOffset dx="11.3466" dy="0.907727"/>
<feGaussianBlur stdDeviation="1"/>
<feComposite in2="hardAlpha" operator="out"/>
<feColorMatrix type="matrix" values="0 0 0 0 0 0 0 0 0 0 0 0 0 0 0 0 0 0 0.15 0"/>
<feBlend in2="BackgroundImageFix" mode="normal" result="effect1_dropShadow_1422_8591"/>
<feBlend in="SourceGraphic" in2="effect1_dropShadow_1422_8591" mode="normal" result="shape"/>
</filter>
<linearGradient gradientUnits="userSpaceOnUse" id="paint0_linear_1422_8591" x1="30.6787" x2="260.848" y1="189.26" y2="55.0354">
<stop stop-color="#EBEBEB"/>
<stop offset="1" stop-color="#393939" stop-opacity="0"/>
</linearGradient>
</defs>
</svg>