<svg width="67" height="56" viewBox="0 0 67 56" fill="none" xmlns="http://www.w3.org/2000/svg">
<g filter="url(#filter0_bi_0_1431)">
<rect y="1" width="64.4023" height="54.6382" rx="12" fill="#161C18"/>
</g>
<line y1="1.48438" x2="67" y2="1.48438" stroke="url(#paint0_linear_0_1431)" stroke-opacity="0.24"/>
<line x1="6.92383" y1="1.48438" x2="27.0238" y2="1.48438" stroke="url(#paint1_linear_0_1431)" stroke-opacity="0.68"/>
<path d="M27.2508 28.7918L23.2925 32.7502L27.2508 36.7085L31.2092 32.7502L27.2508 28.7918ZM36.7508 12.9585C34.1535 12.9585 31.6521 13.9407 29.7486 15.7079C27.8452 17.4752 26.6803 19.8968 26.4877 22.487C24.5226 22.6331 22.6408 23.3402 21.0658 24.5244C19.4908 25.7086 18.2889 27.3201 17.6028 29.1673C16.9168 31.0145 16.7755 33.0199 17.1957 34.945C17.6159 36.8702 18.58 38.6343 19.9733 40.0276C21.3667 41.421 23.1308 42.3851 25.056 42.8053C26.9811 43.2255 28.9865 43.0842 30.8337 42.3981C32.6809 41.7121 34.2924 40.5102 35.4766 38.9352C36.6608 37.3602 37.3679 35.4784 37.514 33.5133C40.1696 33.3153 42.6451 32.0956 44.4203 30.1105C46.1954 28.1254 47.132 25.5295 47.0332 22.8683C46.9344 20.2071 45.8079 17.6878 43.8904 15.8398C41.973 13.9919 39.4139 12.9591 36.7508 12.9585ZM37.2622 30.3577C36.8187 28.5086 35.8722 26.8181 34.5276 25.4734C33.1829 24.1288 31.4924 23.1823 29.6432 22.7387C29.7415 21.3767 30.229 20.0717 31.0478 18.9788C31.8666 17.886 32.9822 17.0515 34.2618 16.5747C35.5414 16.0979 36.9311 15.9988 38.2653 16.2892C39.5996 16.5797 40.8223 17.2475 41.7879 18.2131C42.7535 19.1786 43.4213 20.4014 43.7117 21.7357C44.0022 23.0699 43.9031 24.4596 43.4263 25.7392C42.9495 27.0188 42.115 28.1344 41.0222 28.9532C39.9293 29.772 38.6243 30.2595 37.2622 30.3577ZM34.3758 32.7502C34.3758 34.6398 33.6252 36.4521 32.289 37.7883C30.9528 39.1245 29.1405 39.8752 27.2508 39.8752C25.3612 39.8752 23.5489 39.1245 22.2127 37.7883C20.8765 36.4521 20.1258 34.6398 20.1258 32.7502C20.1258 30.8605 20.8765 29.0482 22.2127 27.712C23.5489 26.3758 25.3612 25.6252 27.2508 25.6252C29.1405 25.6252 30.9528 26.3758 32.289 27.712C33.6252 29.0482 34.3758 30.8605 34.3758 32.7502ZM17.7508 20.0835C17.7508 18.4038 18.4181 16.7929 19.6058 15.6052C20.7936 14.4174 22.4045 13.7502 24.0842 13.7502H26.4592V16.9168H24.0842C23.2443 16.9168 22.4389 17.2505 21.845 17.8443C21.2511 18.4382 20.9175 19.2436 20.9175 20.0835V22.4585H17.7508V20.0835ZM43.0842 35.9168V33.5418H46.2508V35.9168C46.2508 37.5965 45.5836 39.2074 44.3958 40.3952C43.2081 41.5829 41.5972 42.2502 39.9175 42.2502H37.5425V39.0835H39.9175C40.7574 39.0835 41.5628 38.7499 42.1567 38.156C42.7505 37.5621 43.0842 36.7567 43.0842 35.9168Z" fill="#D4FC34" fill-opacity="0.62"/>
<defs>
<filter id="filter0_bi_0_1431" x="-30.7" y="-29.7" width="125.802" height="116.038" filterUnits="userSpaceOnUse" color-interpolation-filters="sRGB">
<feFlood flood-opacity="0" result="BackgroundImageFix"/>
<feGaussianBlur in="BackgroundImageFix" stdDeviation="15.35"/>
<feComposite in2="SourceAlpha" operator="in" result="effect1_backgroundBlur_0_1431"/>
<feBlend mode="normal" in="SourceGraphic" in2="effect1_backgroundBlur_0_1431" result="shape"/>
<feColorMatrix in="SourceAlpha" type="matrix" values="0 0 0 0 0 0 0 0 0 0 0 0 0 0 0 0 0 0 127 0" result="hardAlpha"/>
<feOffset dy="1"/>
<feComposite in2="hardAlpha" operator="arithmetic" k2="-1" k3="1"/>
<feColorMatrix type="matrix" values="0 0 0 0 1 0 0 0 0 1 0 0 0 0 1 0 0 0 0.12 0"/>
<feBlend mode="normal" in2="shape" result="effect2_innerShadow_0_1431"/>
</filter>
<linearGradient id="paint0_linear_0_1431" x1="0" y1="2.48438" x2="67" y2="2.48438" gradientUnits="userSpaceOnUse">
<stop stop-color="#F9FF38" stop-opacity="0"/>
<stop offset="0.178272" stop-color="#F9FF38"/>
<stop offset="1" stop-color="#F9FF38" stop-opacity="0"/>
</linearGradient>
<linearGradient id="paint1_linear_0_1431" x1="6.92383" y1="2.48438" x2="27.0238" y2="2.48438" gradientUnits="userSpaceOnUse">
<stop stop-color="#F9FF38" stop-opacity="0"/>
<stop offset="0.178272" stop-color="#F9FF38"/>
<stop offset="1" stop-color="#F9FF38" stop-opacity="0"/>
</linearGradient>
</defs>
</svg>
