<svg width="123" height="50" viewBox="0 0 123 50" fill="none" xmlns="http://www.w3.org/2000/svg">
<path fill-rule="evenodd" clip-rule="evenodd" d="M17.2679 15.9513C16.3649 16.0567 15.6758 16.79 15.6115 17.7151C15.5841 18.1134 15.5926 18.1408 16.4966 20.4662C18.5522 25.7555 19.0506 27.0293 19.1339 27.2084C19.3372 27.6425 19.6217 28.0503 19.9789 28.417C20.2528 28.6983 20.433 28.8489 20.7375 29.0534C21.2738 29.4116 21.5404 29.5106 23.6266 30.1281C25.659 30.7297 26.7696 31.1301 27.7273 31.6053C28.9675 32.2206 29.8325 32.9202 30.3794 33.7515C30.7724 34.3479 31.1201 35.4163 31.2707 36.4921C31.3297 36.9125 31.3308 37.8418 31.2718 38.2221C31.1443 39.0471 30.8893 39.7383 30.4995 40.3168C30.2919 40.6244 30.3646 40.5728 30.6659 40.1977C31.5194 39.1367 32.3886 37.3234 32.8322 35.6786C33.3685 33.6883 33.4423 31.5515 33.0419 29.5285C32.2633 25.589 29.7767 22.1899 26.2744 20.2776C26.0542 20.1575 25.2165 19.7181 24.0796 19.127C23.9068 19.0375 23.6719 18.9142 23.557 18.8541C23.4422 18.7941 23.2072 18.6708 23.0344 18.5812C22.8616 18.4917 22.3654 18.2325 21.9313 18.007C21.4972 17.7805 21.0114 17.5276 20.8513 17.4444C20.3645 17.1904 20.0379 17.0197 19.7945 16.8922C18.6681 16.3033 18.1919 16.0641 18.056 16.023C17.9137 15.9798 17.5513 15.9239 17.4607 15.9313C17.4417 15.9313 17.3553 15.9419 17.2679 15.9513Z" fill="black"/>
<path d="M19.7229 35.6986C19.6607 35.7355 19.5733 35.7892 19.528 35.8177C19.4837 35.8461 19.3836 35.9083 19.3078 35.9546C19.0264 36.1274 18.2784 36.5879 17.6356 36.9851C17.2131 37.2454 17.151 37.2843 16.6136 37.6173C16.4218 37.7364 16.2185 37.8617 16.1605 37.8955C16.1026 37.9302 15.8571 38.0809 15.6148 38.2316C15.3724 38.3822 14.9489 38.6435 14.6739 38.8121C14.3989 38.9807 13.9079 39.2841 13.5823 39.4854C13.2567 39.6866 12.8279 39.9511 12.6298 40.0723C12.4317 40.1934 12.2494 40.3104 12.2231 40.3325C12.1852 40.3652 10.4245 41.4557 9.54052 41.9941C8.86935 42.4029 8.09282 42.6758 7.29837 42.7833C6.92854 42.8328 6.22787 42.8339 5.8591 42.7833C4.8592 42.6484 3.93726 42.2754 3.14808 41.6864C2.83831 41.4557 2.25565 40.873 2.03333 40.5717C1.50862 39.8626 1.1683 39.1029 0.992339 38.2421C0.9523 38.044 0.913314 37.8765 0.906992 37.8702C0.890134 37.8533 0.92069 38.1525 0.973372 38.5434C1.02922 38.9501 1.14828 39.5381 1.27577 40.0417C2.26513 43.9349 5.08046 47.1011 8.89253 48.6078C9.99042 49.0419 11.0978 49.3148 12.3032 49.4486C12.7562 49.4992 14.0375 49.5192 14.5105 49.4834C16.6779 49.319 18.5649 48.6816 20.5005 47.4583C20.6733 47.3498 20.9967 47.1454 21.2201 47.0042C21.4435 46.863 21.7259 46.6849 21.847 46.6069C21.9682 46.529 22.1147 46.4373 22.1726 46.4025C22.2306 46.3678 22.3454 46.2961 22.4276 46.2424C22.5108 46.1886 22.8659 45.9642 23.2168 45.743L24.6213 44.8558L25.1038 44.5513L25.1207 44.5408L25.1734 44.507L25.1987 44.4912L25.5537 44.2668L26.7812 43.4913C28.3448 42.5093 28.8105 42.1637 29.5375 41.4525C29.8399 41.1565 30.2972 40.6497 30.3193 40.5854C30.3236 40.5727 30.4047 40.4474 30.4995 40.3072C30.8841 39.7383 31.1401 39.0418 31.2676 38.22C31.3266 37.8396 31.3256 36.9103 31.2666 36.4899C31.1517 35.6765 30.8925 34.7546 30.6123 34.1677C30.1529 33.2046 29.1751 32.3301 27.7695 31.6252C27.3818 31.4303 26.9804 31.2523 26.9361 31.2554C26.915 31.2565 25.6075 32.0562 24.0291 33.0318C22.4518 34.0075 21.0831 34.8546 20.9873 34.9147C20.8914 34.9737 20.727 35.0749 20.6216 35.1381L19.7229 35.6986Z" fill="black"/>
<path d="M0.886435 31.0163L0.892757 37.8144L0.981264 38.2095C1.25626 39.4433 1.73356 40.3337 2.56172 41.1608C2.95157 41.5496 3.24975 41.7835 3.67226 42.0342C4.56575 42.5632 5.52772 42.8245 6.58136 42.8234C7.68452 42.8224 8.64017 42.5474 9.62322 41.9457C9.78969 41.8446 10.4398 41.4442 11.0688 41.0554L12.212 40.3495V32.2839V24.2182V16.8396C12.212 12.1319 12.2036 9.33663 12.1878 9.11642C12.094 7.73826 11.5177 6.47073 10.5483 5.51297C10.2512 5.21901 9.99621 5.02198 9.23969 4.50148C8.86249 4.24229 8.17341 3.76709 7.70665 3.44573C7.24094 3.12437 6.47284 2.59544 5.99975 2.26987C5.52667 1.9443 4.85339 1.47964 4.50148 1.2373C3.77025 0.732611 3.7123 0.697841 3.49103 0.618818C3.20339 0.515562 2.89889 0.47763 2.60808 0.509239C1.76306 0.600905 1.08663 1.21096 0.910669 2.04018C0.883274 2.16872 0.878006 3.88615 0.878006 13.2056V24.2193H0.876953L0.886435 31.0163Z" fill="black"/>
<path d="M48.4023 39.3295V10.5409H57.5448C60.3285 10.5409 62.5432 11.1499 64.168 12.369C65.7927 13.588 66.6061 15.1727 66.6061 17.123C66.6061 18.7488 66.1393 20.1701 65.2248 21.3892C64.247 22.6262 62.9036 23.5218 61.3853 23.9495V24.0307C63.3767 24.254 64.9403 24.9853 66.1193 26.2454C67.3183 27.4645 67.9073 29.0902 67.9073 31.0605C67.9073 33.5187 66.9317 35.5301 65.0014 37.0336C63.0701 38.5372 60.613 39.3295 57.6459 39.3295H48.4023ZM53.1764 14.3804V22.5682H56.2646C57.9304 22.5682 59.2306 22.1615 60.1652 21.4103C61.1198 20.5979 61.5865 19.5 61.5865 18.0787C61.5865 15.6005 59.9408 14.3814 56.6502 14.3814H53.1764V14.3804ZM53.1764 26.4077V35.509H57.2403C59.0272 35.509 60.4096 35.1023 61.3642 34.29C62.3399 33.4565 62.8277 32.3196 62.8277 30.8772C62.8277 27.8901 60.7752 26.4077 56.6313 26.4077H53.1764ZM73.7371 14.4626C72.9848 14.4626 72.3147 14.1981 71.7868 13.7113C71.2379 13.2235 70.9745 12.5934 70.9745 11.8221C70.9745 11.0498 71.2389 10.4208 71.7868 9.91189C72.3358 9.40403 72.9859 9.16064 73.7571 9.16064C74.5284 9.16064 75.1996 9.40403 75.7485 9.91189C76.2975 10.4197 76.5609 11.0698 76.5609 11.8221C76.5609 12.5534 76.2964 13.1634 75.7485 13.6913C75.1996 14.1981 74.5295 14.4626 73.7371 14.4626ZM76.053 39.3295H71.4012V18.7688H76.0741L76.053 39.3295ZM99.113 39.3295H94.4601V27.749C94.4601 23.8884 93.0988 21.9792 90.3973 21.9792C88.9749 21.9792 87.7969 22.5282 86.8623 23.605C85.9214 24.7219 85.4294 26.1485 85.481 27.6078V39.3295H80.8081V18.7688H85.481V22.1815H85.5621C86.1985 20.9741 87.1594 19.9699 88.3374 19.2798C89.5154 18.5907 90.8619 18.2441 92.2253 18.281C94.4601 18.281 96.167 19.0122 97.345 20.4757C98.5229 21.9181 99.113 24.0106 99.113 26.7733V39.3295ZM122.172 37.6837C122.172 45.2215 118.394 48.9998 110.795 48.9998C108.389 49.0546 106.001 48.5973 103.786 47.6585V43.3923C106.021 44.6925 108.174 45.3226 110.186 45.3226C115.062 45.3226 117.52 42.9256 117.52 38.1104V35.8757H117.439C116.764 37.1137 115.755 38.1378 114.527 38.8311C113.299 39.5244 111.9 39.8584 110.491 39.7973C109.342 39.8342 108.199 39.6077 107.149 39.1367C106.1 38.6647 105.172 37.9598 104.437 37.0747C102.818 34.9685 102.004 32.3534 102.141 29.7003C102.141 26.2054 102.953 23.4427 104.619 21.3702C106.285 19.2977 108.52 18.282 111.405 18.282C114.106 18.282 116.119 19.3999 117.439 21.6136H117.52V18.7688H122.192L122.172 37.6837ZM117.56 29.9226V27.2411C117.56 25.7987 117.072 24.5596 116.118 23.5439C115.668 23.0445 115.116 22.6483 114.498 22.3817C113.882 22.1151 113.214 21.9855 112.543 22.0003C110.775 22.0003 109.393 22.6704 108.398 23.9706C107.309 25.5774 106.78 27.4982 106.894 29.4358C106.894 31.4672 107.382 33.073 108.315 34.291C109.291 35.5101 110.55 36.0991 112.135 36.0991C113.761 36.0991 115.061 35.5101 116.057 34.3721C117.072 33.1942 117.56 31.7307 117.56 29.9026V29.9226Z" fill="black"/>
</svg>
