<svg width="143" height="36" viewBox="0 0 143 36" fill="none" xmlns="http://www.w3.org/2000/svg">
<path d="M87.5008 27.7968H87.4533C87.477 27.7968 87.4771 27.8205 87.5008 27.8205H87.5246L87.5008 27.7968ZM87.5008 27.8205C87.3106 27.8205 86.8114 27.9156 86.2884 27.9156C84.6481 27.9156 84.0775 27.1549 84.0775 26.1564V19.5475H87.4295C87.6197 19.5475 87.7623 19.3811 87.7623 19.1434V15.5537C87.7623 15.3635 87.5959 15.1971 87.4295 15.1971H84.0775V10.7278C84.0775 10.5613 83.9586 10.4662 83.7685 10.4662H79.204C79.0139 10.4662 78.9188 10.5851 78.9188 10.7278V15.3159C78.9188 15.3159 76.6128 15.8865 76.4701 15.9103C76.3037 15.9578 76.2086 16.1004 76.2086 16.2669V19.1434C76.2086 19.3811 76.3751 19.5475 76.5652 19.5475H78.895V26.4893C78.895 31.648 82.4847 32.171 84.9333 32.171C86.0507 32.171 87.4057 31.8144 87.6197 31.6955C87.7386 31.648 87.8099 31.5054 87.8099 31.3627V28.2009C87.8099 28.0107 87.691 27.8681 87.5008 27.8205ZM137.567 23.1848C137.567 19.3574 136.022 18.8581 134.405 19.0245C133.145 19.0958 132.123 19.7377 132.123 19.7377V27.1787C132.123 27.1787 133.145 27.8919 134.69 27.9394C136.854 27.987 137.567 27.2024 137.567 23.1848ZM142.702 22.852C142.702 30.1028 140.348 32.171 136.259 32.171C132.788 32.171 130.934 30.4118 130.934 30.4118C130.934 30.4118 130.863 31.3865 130.744 31.5054C130.673 31.6242 130.578 31.6718 130.435 31.6718H127.321C127.107 31.6718 126.916 31.5054 126.916 31.3152L126.964 7.85122C126.964 7.66103 127.13 7.49462 127.321 7.49462H131.814C132.004 7.49462 132.17 7.66103 132.17 7.85122V15.8152C132.17 15.8152 133.906 14.6978 136.449 14.6978L136.426 14.6503C138.946 14.6503 142.702 15.6012 142.702 22.852ZM124.278 15.2208H119.832C119.594 15.2208 119.476 15.3873 119.476 15.625V27.1074C119.476 27.1074 118.311 27.9156 116.718 27.9156C115.149 27.9156 114.673 27.2024 114.673 25.6097V15.5774C114.673 15.3873 114.507 15.2208 114.317 15.2208H109.8C109.61 15.2208 109.443 15.3873 109.443 15.5774V26.3942C109.443 31.0299 112.035 32.1948 115.601 32.1948C118.548 32.1948 120.926 30.5782 120.926 30.5782C120.926 30.5782 121.045 31.4103 121.092 31.5291C121.14 31.6242 121.282 31.7193 121.425 31.7193H124.254C124.492 31.7193 124.61 31.5529 124.61 31.3627L124.658 15.5774C124.682 15.3873 124.492 15.2208 124.278 15.2208ZM74.2117 15.1971H69.7186C69.5284 15.1971 69.362 15.3873 69.362 15.625V31.125C69.362 31.5529 69.6473 31.6955 70.0039 31.6955H74.0691C74.497 31.6955 74.5921 31.5054 74.5921 31.125V15.5537C74.5683 15.3635 74.4019 15.1971 74.2117 15.1971ZM71.977 8.0414C70.3605 8.0414 69.053 9.32515 69.053 10.9655C69.053 12.582 70.3367 13.8896 71.977 13.8896C73.5698 13.8896 74.8536 12.6058 74.8536 10.9655C74.8536 9.34892 73.5698 8.0414 71.977 8.0414ZM106.828 7.5184H102.359C102.169 7.5184 102.002 7.68481 102.002 7.87499V16.5046H95.0131V7.87499C95.0131 7.68481 94.8467 7.5184 94.6565 7.5184H90.1634C89.9732 7.5184 89.8068 7.68481 89.8068 7.87499V31.3389C89.8068 31.5291 89.997 31.6955 90.1634 31.6955H94.6565C94.8467 31.6955 95.0131 31.5291 95.0131 31.3389V21.3067H102.002L101.955 31.3389C101.955 31.5291 102.121 31.6955 102.311 31.6955H106.805C106.995 31.6955 107.161 31.5291 107.161 31.3389V7.87499C107.185 7.68481 107.018 7.5184 106.828 7.5184ZM66.9609 17.9072V30.0314C66.9609 30.1027 66.9372 30.2692 66.8421 30.2929C66.8421 30.2929 64.2033 32.171 59.8528 32.171C54.599 32.171 48.3467 30.5307 48.3467 19.6664C48.3467 8.80214 53.7907 6.56748 59.1159 6.59125C63.7278 6.59125 65.5821 7.63726 65.8674 7.82744C65.9387 7.94631 65.9863 8.01763 65.9863 8.11272L65.1304 11.8926C65.1304 12.0828 64.9402 12.3205 64.7025 12.2492C63.9418 12.0115 62.8007 11.5598 60.1143 11.5598C57.0001 11.5598 53.6718 12.4394 53.6718 19.4524C53.6718 26.4417 56.8336 27.2738 59.1159 27.2738C61.0652 27.2738 61.7547 27.036 61.7547 27.036V22.1863H58.6404C58.4027 22.1863 58.2363 22.0199 58.2363 21.8297V17.931C58.2363 17.7408 58.4027 17.5744 58.6404 17.5744H66.5568C66.7945 17.5506 66.9609 17.717 66.9609 17.9072Z" fill="black"/>
<path fill-rule="evenodd" clip-rule="evenodd" d="M18.1551 0.57666C8.14663 0.57666 0.0400391 8.68326 0.0400391 18.6917C0.0400391 26.7032 5.22256 33.4785 12.4258 35.8796C13.3292 36.0222 13.6857 35.4992 13.6857 35.0237C13.6857 34.5958 13.662 33.1695 13.662 31.648C9.12133 32.48 7.93268 30.5307 7.57608 29.5322C7.36213 29.0092 6.48252 27.3926 5.72179 26.9647C5.07992 26.6319 4.17654 25.776 5.69801 25.7523C7.12439 25.7285 8.14663 27.0598 8.47946 27.6066C10.1198 30.3405 12.7111 29.5797 13.7571 29.1043C13.9235 27.9394 14.3989 27.1311 14.9219 26.6794C10.9043 26.2277 6.67271 24.6587 6.67271 17.7408C6.67271 15.7676 7.3859 14.1273 8.527 12.8673C8.33682 12.4156 7.71872 10.5613 8.71719 8.06516C8.71719 8.06516 10.2387 7.5897 13.7095 9.91946C15.1597 9.51532 16.7049 9.30136 18.2264 9.30136C19.7716 9.30136 21.2931 9.51532 22.7433 9.91946C26.2141 7.56593 27.7118 8.06516 27.7118 8.06516C28.7103 10.5613 28.0684 12.4156 27.902 12.8673C29.0669 14.1273 29.7563 15.7438 29.7563 17.7408C29.7563 24.6825 25.5247 26.2277 21.4833 26.6794C22.1489 27.25 22.7195 28.3198 22.7195 30.0314C22.7195 32.4563 22.6957 34.4057 22.6957 35C22.6957 35.4754 23.0285 36.046 23.9319 35.8558C31.3015 33.3596 36.2701 26.4417 36.2701 18.6679C36.2701 8.68326 28.1635 0.57666 18.1551 0.57666Z" fill="black"/>
</svg>
