<svg width="158" height="48" viewBox="0 0 158 48" fill="none" xmlns="http://www.w3.org/2000/svg">
<path d="M18.4189 36.6323C15.0887 36.6323 12.0463 35.81 9.20947 34.2477C6.37263 32.6854 4.15248 30.4653 2.46682 27.6695C0.822274 24.8738 0 21.7492 0 18.2956C0 14.842 0.822274 11.7585 2.46682 8.96278C4.15248 6.16705 6.37263 3.98803 9.20947 2.34348C12.0463 0.740045 15.1298 0 18.4189 0C21.708 0 23.517 0.493365 25.8194 1.43898C28.1218 2.3846 30.013 3.70023 31.5342 5.42701L27.7106 9.25058C26.5595 7.93495 25.2027 6.98933 23.5993 6.33151C21.9958 5.67369 20.2691 5.30367 18.3778 5.30367C16.4866 5.30367 14.0198 5.83814 12.0463 6.94821C10.0729 8.05828 8.55165 9.53838 7.35935 11.553C6.16706 13.5675 5.59146 15.8288 5.59146 18.4189C5.59146 21.0091 6.16706 23.2704 7.35935 25.2849C8.55165 27.2995 10.114 28.7796 12.0463 29.8897C14.0198 30.9586 16.1166 31.5342 18.4189 31.5342C20.7213 31.5342 22.2425 31.2464 23.6404 30.6297C25.0382 30.013 26.2717 29.1907 27.4228 28.1218C28.1629 27.3817 28.7796 26.4772 29.2318 25.4494C29.7663 24.3804 30.0952 23.1881 30.2597 21.9547H18.3778V16.8566H35.4811C35.6456 17.7611 35.7278 18.7478 35.7278 19.6935C35.7278 21.9136 35.3989 24.0515 34.7 26.1483C34.0422 28.1629 32.9321 29.9308 31.452 31.4109C28.1218 34.8644 23.8048 36.6323 18.4189 36.6323ZM51.1455 36.6323C48.6375 36.6323 46.3763 36.0567 44.3617 34.9055C42.3882 33.7544 40.8259 32.1098 39.7158 30.0952C38.6058 28.0807 38.0302 25.8194 38.0302 23.3115C38.0302 20.8035 38.6058 18.5423 39.7158 16.5277C40.8259 14.5131 42.3471 12.9097 44.3617 11.7585C46.3352 10.6073 48.5964 9.99063 51.1455 9.99063C53.6945 9.99063 55.9146 10.5662 57.9292 11.7585C59.9438 12.9508 61.465 14.5542 62.5751 16.5688C63.6851 18.5834 64.2607 20.8447 64.2607 23.3115C64.2607 25.7783 63.6851 28.0807 62.5751 30.0952C61.465 32.1098 59.9438 33.7132 57.9292 34.9055C55.9146 36.0567 53.6945 36.6323 51.1455 36.6323ZM51.1455 31.6987C52.5433 31.6987 53.7767 31.3698 54.969 30.753C56.1202 30.0952 57.0658 29.1085 57.7648 27.8751C58.5048 26.5595 58.8337 25.1205 58.8337 23.3937C58.8337 21.6669 58.5048 20.228 57.7648 18.9945C57.1069 17.7611 56.1202 16.7744 54.969 16.1577C53.8179 15.4999 52.5022 15.1298 51.1455 15.1298C49.7887 15.1298 48.5142 15.4587 47.3219 16.1577C46.1707 16.8155 45.2251 17.7611 44.485 18.9945C43.8272 20.228 43.4572 21.6669 43.4572 23.3937C43.4572 25.1205 43.7861 26.5595 44.485 27.8751C45.2251 29.1085 46.1707 30.0952 47.3219 30.753C48.5142 31.3698 49.8298 31.6987 51.1455 31.6987ZM79.4317 36.6323C76.9238 36.6323 74.6625 36.0567 72.6479 34.9055C70.6745 33.7544 69.1121 32.1098 68.0021 30.0952C66.892 28.0807 66.3164 25.8194 66.3164 23.3115C66.3164 20.8035 66.892 18.5423 68.0021 16.5277C69.1121 14.5131 70.6334 12.9097 72.6479 11.7585C74.6214 10.6073 76.8826 9.99063 79.4317 9.99063C81.9807 9.99063 84.2009 10.5662 86.2155 11.7585C88.1889 12.9097 89.7512 14.5542 90.8613 16.5688C91.9714 18.5834 92.547 20.8447 92.547 23.3115C92.547 25.7783 91.9714 28.0807 90.8613 30.0952C89.7512 32.1098 88.23 33.7132 86.2155 34.9055C84.2009 36.0567 81.9807 36.6323 79.4317 36.6323ZM79.4317 31.6987C80.8296 31.6987 82.063 31.3698 83.2553 30.753C84.4064 30.0952 85.3521 29.1085 86.051 27.8751C86.7911 26.5595 87.1199 25.1205 87.1199 23.3937C87.1199 21.6669 86.7911 20.228 86.051 18.9945C85.3932 17.7611 84.4064 16.7744 83.2553 16.1577C82.1041 15.4999 80.7884 15.1298 79.4317 15.1298C78.0749 15.1298 76.8004 15.4587 75.6081 16.1577C74.4569 16.8155 73.5113 17.7611 72.7713 18.9945C72.1134 20.228 71.7434 21.6669 71.7434 23.3937C71.7434 25.1205 72.0723 26.5595 72.7713 27.8751C73.5113 29.1085 74.4569 30.0952 75.6081 30.753C76.8004 31.3698 78.1161 31.6987 79.4317 31.6987ZM107.307 47.1985C104.223 47.1985 101.674 46.4585 99.6596 45.1017C97.6862 43.7039 96.3294 42.0182 95.6305 40.127L100.687 38.0302C101.222 39.3458 102.044 40.3737 103.195 41.1548C104.347 41.9771 105.744 42.3471 107.307 42.3471C109.609 42.3471 111.377 41.6893 112.652 40.2914C113.967 38.9347 114.625 37.0846 114.625 34.6177V32.3154H114.337C113.515 33.4666 112.405 34.4122 111.089 35.1111C109.774 35.81 108.211 36.0567 106.443 36.0567C104.676 36.0567 102.414 35.5223 100.646 34.4122C98.8785 33.3432 97.4395 31.822 96.3294 29.8486C95.2605 27.8751 94.726 25.5727 94.726 23.0237C94.726 20.4746 95.2605 18.2134 96.3294 16.2399C97.3984 14.2665 98.8374 12.7452 100.646 11.6352C102.414 10.5251 104.388 9.94952 106.443 9.94952C108.499 9.94952 109.691 10.2784 111.089 10.9774C112.487 11.6352 113.556 12.6219 114.337 13.7731H114.625V10.7307H119.764V34.3711C119.764 37.0435 119.23 39.3458 118.161 41.2782C117.092 43.2105 115.653 44.6495 113.762 45.6362C111.953 46.7463 109.774 47.2397 107.307 47.2397V47.1985ZM107.348 31.1642C108.664 31.1642 109.856 30.8764 110.966 30.2597C112.076 29.6019 112.939 28.6563 113.597 27.464C114.255 26.2305 114.543 24.7916 114.543 23.1059C114.543 20.5569 113.803 18.5834 112.446 17.1855C111.048 15.7465 109.362 15.0065 107.307 15.0065C105.251 15.0065 104.758 15.3354 103.607 15.9521C102.496 16.5688 101.633 17.4733 100.975 18.7067C100.317 19.9401 100.03 21.338 100.03 23.0648C100.03 24.7916 100.359 26.2306 100.975 27.4228C101.633 28.6151 102.496 29.6019 103.607 30.2186C104.799 30.8353 105.991 31.1231 107.348 31.1231V31.1642ZM124.616 0.781158H130.002V35.8512H124.616V0.781158ZM145.995 36.6323C143.528 36.6323 141.349 36.0567 139.375 34.9055C137.443 33.7544 135.922 32.2332 134.812 30.2186C133.743 28.204 133.167 25.9427 133.167 23.3937C133.167 20.8446 133.702 18.789 134.771 16.7744C135.84 14.7187 137.32 13.0742 139.252 11.8819C141.184 10.6896 143.322 10.114 145.748 10.114C148.174 10.114 150.435 10.6896 152.285 11.7996C154.176 12.9097 155.533 14.4309 156.52 16.3633C157.507 18.2956 158 20.4335 158 22.9003C158 25.3672 157.959 23.9282 157.836 24.6271H138.677C138.882 26.9295 139.704 28.7385 141.143 30.013C142.623 31.2464 144.309 31.9042 146.241 31.9042C148.174 31.9042 149.119 31.5753 150.229 30.8764C151.381 30.1364 152.285 29.1907 152.984 27.9984L157.548 30.1775C156.397 32.2331 154.875 33.8366 152.943 35.0289C151.011 36.0978 148.708 36.7145 146.077 36.7145L145.995 36.6323ZM152.45 20.3924C152.409 19.529 152.121 18.6656 151.627 17.8022C151.134 16.9388 150.394 16.1577 149.366 15.5821C148.421 15.0065 147.146 14.7187 145.748 14.7187C144.35 14.7187 142.541 15.2532 141.349 16.3221C140.198 17.35 139.375 18.7067 138.882 20.4335H152.409L152.45 20.3924Z" fill="black"/>
</svg>
