<svg width="139" height="27" viewBox="0 0 139 27" fill="none" xmlns="http://www.w3.org/2000/svg">
<path fill-rule="evenodd" clip-rule="evenodd" d="M97.4386 6.00793C95.3481 6.00793 93.7802 6.79189 92.9962 8.09849L92.6042 8.88244V6.39991H89.2071V21.5564H92.8656V12.5409C92.8656 10.4504 94.0415 9.14376 96.132 9.14376C98.0919 9.14376 99.1372 10.3197 99.1372 12.4103V21.5564H102.796V11.757C102.665 8.22915 100.705 6.00793 97.4386 6.00793ZM79.7996 6.00793C75.4878 6.00793 72.8746 8.75178 72.8746 13.0636V15.1541C72.8746 19.3352 75.6185 21.8178 79.9302 21.8178C82.8048 21.8178 84.8953 20.7725 86.0712 18.5513L83.85 17.2447C82.9354 18.5513 81.3675 19.3352 79.9302 19.3352C77.709 19.3352 76.4024 18.0286 76.4024 15.6768V15.0235H86.5939V12.5409C86.4632 8.62112 83.85 6.00793 79.7996 6.00793ZM83.1967 12.8022H76.4024V12.4103C76.4024 9.92772 77.5784 8.49046 79.7996 8.49046C81.8901 8.49046 83.1967 9.79706 83.1967 12.1489V12.8022ZM138.858 3.91737V1.04286H126.314V3.91737H130.757V18.6819H126.314V21.5564H138.858V18.6819H134.415V3.91737H138.858ZM43.3455 0.650879C37.7271 0.650879 34.1993 4.17869 34.1993 9.79706V12.8022C34.1993 18.4206 37.7271 21.9484 43.3455 21.9484C48.9639 21.9484 52.4917 18.4206 52.4917 12.8022V9.79706C52.4917 4.17869 48.9639 0.650879 43.3455 0.650879ZM48.7026 13.0636C48.7026 16.8527 46.7427 18.9432 43.3455 18.9432C39.9484 18.9432 37.9884 16.8527 37.9884 13.0636V9.53574C37.9884 5.74661 39.9484 3.65605 43.3455 3.65605C46.7427 3.65605 48.7026 5.74661 48.7026 9.53574V13.0636ZM63.9897 6.13859C62.0298 6.13859 60.4619 6.92255 59.5473 8.22914L59.1553 8.75179V6.39991H55.7582V26.7828H59.4167V19.4659L59.8086 19.9885C60.5926 21.1645 62.2912 21.9484 64.1204 21.9484C67.2562 21.9484 70.3921 19.8579 70.3921 15.2848V12.6716C70.2614 9.40508 68.3015 6.00793 63.9897 6.13859ZM66.6029 15.1541C66.6029 17.6366 65.1657 19.0739 62.9445 19.0739C60.8539 19.0739 59.286 17.506 59.286 15.1541V12.9329C59.286 10.581 60.7233 9.01311 62.9445 9.01311C65.1657 9.01311 66.6029 10.581 66.6029 12.9329V15.1541ZM112.726 1.04286L105.409 21.5564H109.067L110.505 17.114H118.998L120.435 21.4258H124.093L116.776 0.912199L112.726 1.04286ZM111.419 14.2395L114.686 3.91737L117.952 14.2395H111.419ZM24.7918 11.365C25.4451 9.53574 25.1838 7.57584 24.2692 6.00793C22.8319 3.52539 19.9574 2.2188 17.2136 2.8721C15.6456 1.17352 13.2938 0.389557 10.9419 0.781537C8.59 1.30418 6.76077 3.00275 5.97681 5.22397C4.14757 5.61595 2.57965 6.79189 1.66504 8.35981C0.227778 10.8423 0.489098 13.9782 2.44899 16.0687C1.7957 17.898 2.05701 19.8579 2.97163 21.4258C4.40889 23.9083 7.2834 25.2149 10.0273 24.5616C11.3339 25.9989 13.0324 26.7828 14.9923 26.7828C17.8668 26.7828 20.3494 24.9536 21.264 22.2097C23.0932 21.8178 24.6612 20.6418 25.5758 19.0739C27.013 16.5914 26.7517 13.4555 24.7918 11.365ZM14.9923 25.0843C13.8164 25.0843 12.7711 24.6923 11.8565 23.9083L11.9872 23.7777L17.2136 20.7725C17.4749 20.6418 17.6055 20.3805 17.6055 19.9885V12.6716L19.8267 13.9782V20.1192C19.8267 22.863 17.7362 25.0843 14.9923 25.0843ZM4.40889 20.5112C3.88625 19.4659 3.62493 18.4206 3.88625 17.2447L4.01691 17.3753L9.2433 20.3805C9.50462 20.5112 9.76594 20.5112 10.1579 20.3805L16.5603 16.722V19.2046C16.5603 19.2046 16.5603 19.2046 16.5603 19.3352L11.3339 22.3404C8.85133 23.647 5.84615 22.863 4.40889 20.5112ZM3.10229 9.27442C3.62493 8.22914 4.53955 7.57585 5.71549 7.18387V13.3249C5.71549 13.5862 5.84615 13.8475 6.10747 14.1088L12.3791 17.7673L10.1579 19.0739C10.1579 19.0739 10.1579 19.0739 10.0273 19.0739L4.80087 16.0687C2.57965 14.5008 1.7957 11.4956 3.10229 9.27442ZM21.1333 13.4555L14.8617 9.79706L17.0829 8.49046C17.0829 8.49046 17.0829 8.49046 17.2136 8.49046L22.4399 11.4956C24.1385 12.4103 25.0531 14.2395 24.9225 16.1994C24.7918 18.0286 23.4852 19.7272 21.7866 20.3805V14.2395C21.656 13.8475 21.3947 13.5862 21.1333 13.4555ZM23.3546 10.189L23.2239 10.0584L17.9975 7.05321C17.7362 6.92255 17.3442 6.92255 17.0829 7.05321L10.8112 10.7117V8.22914C10.8112 8.22914 10.8112 8.22915 10.8112 8.09849L16.0376 5.09331C17.7362 4.17869 19.6961 4.17869 21.264 5.35463C22.8319 6.39991 23.6159 8.22914 23.3546 10.189ZM9.63528 14.6315L7.41406 13.3249V7.18387C7.41406 5.22397 8.45934 3.52539 10.2886 2.74143C11.9872 1.95747 14.0777 2.21879 15.515 3.39473L15.3843 3.52539L10.1579 6.53057C9.8966 6.66123 9.76594 6.92255 9.76594 7.31452L9.63528 14.6315ZM10.8112 12.0183L13.6857 10.4504L16.5603 12.0183V15.2848L13.6857 16.8527L10.8112 15.2848V12.0183Z" fill="black"/>
</svg>
